<svg id="Layer_1" enable-background="new 0 0 512 512" height="512" viewBox="0 0 512 512" width="512" xmlns="http://www.w3.org/2000/svg"><g><g><g><path d="m456 464h-400c-8.837 0-16-7.163-16-16v-240h432v240c0 8.837-7.163 16-16 16z" fill="#4182c3"/></g></g><g><g><path d="m424 464h-368c-8.837 0-16-7.163-16-16v-240h400v240c0 8.837-7.163 16-16 16z" fill="#64afe1"/></g></g><g><g><path d="m456 144h-416v64h432v-48c0-8.837-7.163-16-16-16z" fill="#463c4b"/></g></g><g><g><path d="m424 144h-384v64h400v-48c0-8.837-7.163-16-16-16z" fill="#555a6e"/></g></g><g><g><path d="m40 208 64-64h64l-64 64z" fill="#d7e6f0"/></g></g><g><g><path d="m168 208 64-64h64l-64 64z" fill="#d7e6f0"/></g></g><g><g><path d="m296 208 64-64h64l-64 64z" fill="#d7e6f0"/></g></g><g><g><path d="m440.905 15.832-395.094 62.455c-8.728 1.38-14.685 9.574-13.306 18.302l7.495 47.411 426.702-67.452-7.495-47.411c-1.38-8.728-9.574-14.685-18.302-13.305z" fill="#463c4b"/></g></g><g><g><path d="m409.298 20.828-363.487 57.459c-8.728 1.38-14.685 9.574-13.306 18.302l7.495 47.411 395.094-62.455-7.495-47.411c-1.379-8.729-9.573-14.686-18.301-13.306z" fill="#555a6e"/></g></g><g><g><path d="m40 144 53.222-73.208 63.215-9.993-53.222 73.208z" fill="#d7e6f0"/></g></g><g><g><path d="m166.43 124.014 53.222-73.208 63.215-9.992-53.222 73.208z" fill="#d7e6f0"/></g></g><g><g><path d="m292.86 104.029 53.222-73.208 63.216-9.993-53.223 73.208z" fill="#d7e6f0"/></g></g><g><g><path d="m74.667 96h-34.667c-8.837 0-16 7.163-16 16v80c0 8.837 7.163 16 16 16h114.667v-32c0-44.183-35.818-80-80-80z" fill="#f04b37"/></g></g><g><g><circle cx="56" cy="128" fill="#d7e6f0" r="16"/></g></g><g><g><circle cx="120" cy="176" fill="#d7e6f0" r="16"/></g></g><g fill="#d7e6f0"><path d="m400 320h-88v-48h88c4.418 0 8-3.582 8-8s-3.582-8-8-8h-320c-4.418 0-8 3.582-8 8s3.582 8 8 8h88v48h-88c-4.418 0-8 3.582-8 8s3.582 8 8 8h320c4.418 0 8-3.582 8-8s-3.582-8-8-8zm-216-48h112v48h-112z"/><path d="m400 400h-320c-4.418 0-8 3.582-8 8s3.582 8 8 8h320c4.418 0 8-3.582 8-8s-3.582-8-8-8z"/></g></g></svg>