<svg id="Capa_1" enable-background="new 0 0 512 512" height="512" viewBox="0 0 512 512" width="512" xmlns="http://www.w3.org/2000/svg"><g><g><path d="m179.854 286.205h26.948v78.534h-26.948z" fill="#cbc4cc"/><path d="m179.854 286.205h15.146v78.534h-15.146z" fill="#b5adb6"/><path d="m193.859 255.685c-8.582 0-16.663-2.188-23.715-6.033v32.402c0 2.845 2.306 5.151 5.151 5.151h37.127c2.845 0 5.151-2.306 5.151-5.151v-32.402c-7.051 3.845-15.131 6.033-23.714 6.033z" fill="#554e56"/><path d="m196.209 282.054v-25.429c-.779.036-1.561.059-2.349.059-8.569 0-16.637-2.134-23.715-5.888v31.257c0 2.845 2.306 5.151 5.151 5.151h26.064c-2.845.001-5.151-2.305-5.151-5.15z" fill="#433f43"/><g><circle cx="193.859" cy="205.986" fill="#cbc4cc" r="50.699"/></g><g><path d="m174.616 205.986c0-22.508 14.673-41.579 34.971-48.199-4.953-1.615-10.236-2.5-15.728-2.5-28 0-50.699 22.699-50.699 50.699s22.699 50.699 50.699 50.699c5.492 0 10.775-.885 15.728-2.5-20.298-6.619-34.971-25.691-34.971-48.199z" fill="#b5adb6"/></g><path d="m217.574 415.469v-46.579c0-2.845-2.306-5.151-5.151-5.151h-37.127c-2.845 0-5.151 2.306-5.151 5.151v46.579z" fill="#7a6d79"/><path d="m191.058 414.469v-45.579c0-2.845 2.306-5.151 5.151-5.151h-20.913c-2.845 0-5.151 2.306-5.151 5.151v45.579z" fill="#554e56"/><path d="m273.088 450.331v-25.56c0-5.69-4.612-10.302-10.302-10.302h-137.853c-5.69 0-10.302 4.612-10.302 10.302v25.56z" fill="#cbc4cc"/><path d="m162.254 449.331v-24.56c0-5.69 4.612-10.302 10.302-10.302h-47.623c-5.69 0-10.302 4.612-10.302 10.302v24.56z" fill="#b5adb6"/><path d="m314.523 487.834c-3.37-5.637-5.313-12.22-5.313-19.252 0-7.031 1.943-13.615 5.313-19.251h-241.327c3.37 5.636 5.313 12.22 5.313 19.251s-1.943 13.615-5.314 19.252z" fill="#554e56"/><path d="m74.365 449.331c3.266 5.669 5.144 12.239 5.144 19.252 0 7.012-1.878 13.582-5.144 19.251h57.326v-38.503z" fill="#433f43"/><g fill="#7a6d79"><path d="m207.341 189.269c4.881 3.943 8.013 9.968 8.013 16.717 0 2.919-.59 5.701-1.649 8.241l123.253-33.025c-5.227-5.327-8.487-12.789-8.487-21.043 0-1.141.076-2.274.201-3.399z"/><path d="m172.365 205.986c0-2.73.532-5.333 1.464-7.737l-116.62 31.248v26.663l123.616-33.123c-5.131-3.931-8.46-10.102-8.46-17.051z"/></g><g><circle cx="193.859" cy="205.986" fill="#26a6fe" r="22.494"/></g><g><path d="m192.468 205.986c0-8.609 4.839-16.086 11.943-19.867-3.147-1.675-6.738-2.628-10.551-2.628-12.423 0-22.494 10.071-22.494 22.494s10.071 22.494 22.494 22.494c3.814 0 7.404-.952 10.551-2.628-7.105-3.779-11.943-11.255-11.943-19.865z" fill="#0593fc"/></g><g><path d="m342.35 112.437h27.74v30.458h-27.74z" fill="#cbc4cc"/><path d="m342.35 113.436h15.65v28.459h-15.65z" fill="#b5adb6"/><path d="m311.055 84.375v23.91c0 2.845 2.306 5.151 5.151 5.151h73.916c2.845 0 5.151-2.306 5.151-5.151v-23.91z" fill="#918291"/><path d="m342.792 108.285v-22.91h-31.737v22.91c0 2.845 2.306 5.151 5.151 5.151h31.737c-2.845 0-5.151-2.306-5.151-5.151z" fill="#7a6d79"/><path d="m454.32 30.79h-36.556v38.376h36.566z" fill="#7a6d79"/><path d="m486.99 10.434-1-2.538-33.44 22.894v38.376l33.44 22.704 1-3.056z" fill="#554e56"/><g><path d="m413.613 85.375h-133.609c-2.845 0-5.151-2.306-5.151-5.151v-70.288c0-2.845 2.306-5.151 5.151-5.151h128.103c5.886 0 10.657 4.771 10.657 10.657v64.782c0 2.845-2.306 5.151-5.151 5.151z" fill="#554e56"/></g><g><path d="m306.479 80.224v-70.288c0-2.845 2.306-5.151 5.151-5.151h-31.625c-2.845 0-5.151 2.306-5.151 5.151v70.288c0 2.845 2.306 5.151 5.151 5.151h31.625c-2.845 0-5.151-2.306-5.151-5.151z" fill="#433f43"/></g><g><path d="m333.979 47.354c2.845 0 5.151-2.306 5.151-5.151v-37.418h-59.125c-2.845 0-5.151 2.306-5.151 5.151v37.418z" fill="#7a6d79"/></g><g><path d="m333.979 47.354c2.845 0 5.151-2.306 5.151-5.151v-37.418h-59.125c-2.845 0-5.151 2.306-5.151 5.151v37.418z" fill="#7a6d79"/></g><g><path d="m311.63 4.785h-31.625c-2.845 0-5.151 2.306-5.151 5.151v37.418h31.625v-37.418c0-2.844 2.306-5.151 5.151-5.151z" fill="#554e56"/></g><g><g><path d="m485.99 91.87h20.859c2.845 0 5.151-2.306 5.151-5.151v-73.672c0-2.845-2.306-5.151-5.151-5.151h-20.859z" fill="#7a6d79"/></g></g></g><g><path d="m53.058 278.582h-47.907c-2.845 0-5.151-2.306-5.151-5.151v-59.117c0-2.845 2.306-5.151 5.151-5.151h47.907c2.845 0 5.151 2.306 5.151 5.151v59.117c0 2.845-2.306 5.151-5.151 5.151z" fill="#554e56"/></g><g><path d="m22.149 273.431v-59.117c0-2.845 2.306-5.151 5.151-5.151h-22.149c-2.845 0-5.151 2.306-5.151 5.151v59.117c0 2.845 2.306 5.151 5.151 5.151h22.149c-2.845 0-5.151-2.306-5.151-5.151z" fill="#433f43"/></g><g><g><circle cx="40.877" cy="468.583" fill="#cbc4cc" r="38.632"/></g><g><path d="m33.481 468.583c0-15.776 9.461-29.334 23.014-35.333-4.777-2.115-10.058-3.298-15.618-3.298-21.336 0-38.632 17.296-38.632 38.632s17.296 38.632 38.632 38.632c5.56 0 10.841-1.184 15.618-3.298-13.553-6.001-23.014-19.56-23.014-35.335z" fill="#b5adb6"/></g><g><circle cx="40.877" cy="468.583" fill="#554e56" r="13.054"/></g><g><circle cx="346.841" cy="468.583" fill="#cbc4cc" r="38.632"/></g><g><path d="m339.445 468.583c0-15.776 9.461-29.334 23.014-35.333-4.777-2.115-10.058-3.298-15.618-3.298-21.336 0-38.632 17.296-38.632 38.632s17.296 38.632 38.632 38.632c5.56 0 10.841-1.184 15.618-3.298-13.553-6.001-23.014-19.56-23.014-35.335z" fill="#b5adb6"/></g><g><circle cx="346.842" cy="468.583" fill="#554e56" r="13.053"/></g></g><g><path d="m336.01 141.895c-1.805 0-3.456.979-4.36 2.541-2.651 4.582-4.18 9.964-4.18 15.722 0 16.72 12.871 30.275 28.749 30.275s28.749-13.555 28.749-30.275c0-5.758-1.529-11.139-4.18-15.722-.904-1.562-2.555-2.541-4.36-2.541z" fill="#554e56"/></g><g><path d="m349.938 160.158c0-6.861 2.17-13.186 5.823-18.263h-19.751c-1.805 0-3.456.979-4.36 2.541-2.651 4.582-4.18 9.964-4.18 15.722 0 16.72 12.871 30.275 28.749 30.275 3.986 0 7.783-.855 11.234-2.4-10.294-4.607-17.515-15.352-17.515-27.875z" fill="#433f43"/></g></g><g><circle cx="389.408" cy="59.996" fill="#b5adb6" r="7.5"/></g><g><circle cx="366.744" cy="59.996" fill="#b5adb6" r="7.5"/></g><g><circle cx="38.117" cy="232.036" fill="#fed402" r="7.5"/></g></g></svg>