<?xml version="1.0" encoding="iso-8859-1"?>
<!-- Generator: Adobe Illustrator 19.0.0, SVG Export Plug-In . SVG Version: 6.00 Build 0)  -->
<svg version="1.1" id="Capa_1" xmlns="http://www.w3.org/2000/svg" xmlns:xlink="http://www.w3.org/1999/xlink" x="0px" y="0px"
	 viewBox="0 0 472 472" style="enable-background:new 0 0 472 472;" xml:space="preserve">
<path style="fill:#5B5B5B;" d="M189.04,0h8c66.274,0,120,53.726,120,120s-53.726,120-120,120h-8l0,0V0L189.04,0z"/>
<path style="fill:#FFB546;" d="M125.04,0h64v240h-64V0z"/>
<path style="fill:#5B5B5B;" d="M357.04,160h-40c-4.418,0-8-3.582-8-8V88c0-4.418,3.582-8,8-8h40c4.418,0,8,3.582,8,8v64
	C365.04,156.418,361.458,160,357.04,160z"/>
<g>
	<path style="fill:#454545;" d="M365.04,112h16v360h-16V112z"/>
	<path style="fill:#454545;" d="M290.696,469.656l-11.312-11.312l88-88c1.52-1.583,3.647-2.437,5.84-2.344
		c2.189,0.05,4.263,0.996,5.736,2.616l80,88l-11.84,10.768l-74.352-81.792L290.696,469.656z"/>
	<path style="fill:#454545;" d="M373.04,448c-1.452,0.002-2.877-0.394-4.12-1.144l-40-24l8.24-13.712l35.88,21.528l35.88-21.528
		l8.24,13.712l-40,24C375.917,447.606,374.492,448.002,373.04,448z"/>
</g>
<g>
	<path style="fill:#FFB546;" d="M13.04,112.864h24v16h-24V112.864z"/>
	<path style="fill:#FFB546;" d="M19.228,163.931l22.554-8.206l5.468,15.028l-22.554,8.206L19.228,163.931z"/>
	<path style="fill:#FFB546;" d="M42.518,209.87l18.388-15.423l10.282,12.259L52.8,222.129L42.518,209.87z"/>
	<path style="fill:#FFB546;" d="M42.525,31.865L52.81,19.608l18.385,15.427L60.91,47.292L42.525,31.865z"/>
	<path style="fill:#FFB546;" d="M19.228,77.754l5.471-15.036l22.553,8.207L41.781,85.96L19.228,77.754z"/>
</g>
<g>
</g>
<g>
</g>
<g>
</g>
<g>
</g>
<g>
</g>
<g>
</g>
<g>
</g>
<g>
</g>
<g>
</g>
<g>
</g>
<g>
</g>
<g>
</g>
<g>
</g>
<g>
</g>
<g>
</g>
</svg>
