<svg id="Capa_1" enable-background="new 0 0 512 512" height="512" viewBox="0 0 512 512" width="512" xmlns="http://www.w3.org/2000/svg"><g><path d="m316 467h-60l-20-60h80z" fill="#cfcfe6"/><g fill="#ece6f2"><path d="m196 407h60v60h-60z"/><path d="m512 30h-256l-20 136 20 256h256z"/><path d="m437 452h-181l-10 15 10 15h181z"/></g><path d="m75 452h181v30h-181z" fill="#fff5f5"/><path d="m0 30h256v392h-256z" fill="#fff5f5"/><path d="m482 60h-226l-20 106 20 181h226z" fill="#0f0f4d"/><path d="m30 60h226v287h-226z" fill="#283d66"/><path d="m121 90h30v152h-30z" fill="#fff5f5"/><path d="m61 272h30v30h-30z" fill="#70da40"/><path d="m121 272h30v30h-30z" fill="#fff79f"/><path d="m181 272h30v30h-30z" fill="#70da40"/><path d="m301 272h30v30h-30z" fill="#24b383"/><path d="m361 272h30v30h-30z" fill="#24b383"/><path d="m421 272h30v30h-30z" fill="#24b383"/><path d="m361 90h30v152h-30z" fill="#ece6f2"/><path d="m331 181h90v30h-90z" fill="#ff415b"/><path d="m91 121h90v30h-90z" fill="#ff8859"/><path d="m271 90h-15l-10 76 10 76h15z" fill="#ece6f2"/><path d="m241 90h15v152h-15z" fill="#fff5f5"/><path d="m271 272h-15l-10 15 10 15h15z" fill="#ffda44"/><path d="m241 272h15v30h-15z" fill="#fff79f"/><path d="m301 151h-45l-10 15 10 15h45z" fill="#ff415b"/><path d="m211 151h45v30h-45z" fill="#ff8859"/></g></svg>