<svg id="Layer_3" height="512" viewBox="0 0 64 64" width="512" xmlns="http://www.w3.org/2000/svg" data-name="Layer 3"><path d="m23 58v-27l3.329 4.161a2.235 2.235 0 0 0 1.745.839 2.234 2.234 0 0 0 1.581-.655l6.517-6.517a2.828 2.828 0 0 0 .828-2 2.828 2.828 0 0 0 -2.828-2.828 2.828 2.828 0 0 0 -2 .828l-4.172 4.172-2.512-4.395a5.168 5.168 0 0 0 -4.488-2.605h-8a5.893 5.893 0 0 0 -4.765 2.426l-4.47 6.148a9.224 9.224 0 0 0 -1.765 5.426v7.5a2.5 2.5 0 0 0 2.5 2.5 2.5 2.5 0 0 0 2.5-2.5v-8.5l4-4v27" fill="#fde2d7"/><path d="m25.488 24.605a5.168 5.168 0 0 0 -4.488-2.605h-8a5.893 5.893 0 0 0 -4.765 2.426l-3.158 4.343 3.494 4.659 2.429-2.428v9h12v-9l1.333 1.667 3.667-3.667z" fill="#49aad0"/><path d="m11 40h12v18h-12z" fill="#43525b"/><path d="m13 40h10v16h-10z" fill="#69737a"/><path d="m23 38v-7l1.333 1.667 3.667-3.667-2.511-4.393a5.17 5.17 0 0 0 -4.489-2.607h-8v13a3 3 0 0 0 3 3z" fill="#62c0db"/><path d="m15 19.583v2.417l2 3 1.999-3.001.001-2.416" fill="#e0b2ac"/><path d="m15 20.481v1.519l2 3 2-3v-1.519a4.113 4.113 0 0 1 -4 0z" fill="#fde2d7"/><path d="m10 13v-7a4 4 0 0 1 4-4h4a3 3 0 0 1 3 3 3 3 0 0 1 3 3v4" fill="#593c35"/><path d="m24 8a3 3 0 0 0 -3-3 3 3 0 0 0 -3-3h-4a3.961 3.961 0 0 0 -1.64.36 3.961 3.961 0 0 0 -.36 1.64 6.517 6.517 0 0 0 6.982 6.5l5.018-.357z" fill="#684640"/><path d="m12 12h-1.5a2.5 2.5 0 0 0 -2.5 2.5 2.5 2.5 0 0 0 2.5 2.5h1.917" fill="#e0b2ac"/><path d="m22 12h1.5a2.5 2.5 0 0 1 2.5 2.5 2.5 2.5 0 0 1 -2.5 2.5h-1.917" fill="#e0b2ac"/><path d="m16 45h2v13h-2z" fill="#43525b"/><path d="m6.105 43.924-1.013-1.725 43.665-25.629 1.899 1.205z" fill="#43525b"/><path d="m22 11v4a5 5 0 0 1 -5 5 5 5 0 0 1 -5-5v-4h2.838a4.387 4.387 0 0 0 4.162-3z" fill="#e0b2ac"/><path d="m14.838 12h-2.838v3a5 5 0 0 0 10 0v-3l-3-3a4.387 4.387 0 0 1 -4.162 3z" fill="#fde2d7"/><path d="m23 58a3 3 0 0 1 3 3v1h-18v-1a3 3 0 0 1 3-3z" fill="#593c35"/><rect fill="#69737a" height="6" rx="3" width="18" x="44" y="12"/><path d="m59 12h-12a2.965 2.965 0 0 0 -1.554.446 2.965 2.965 0 0 0 -.446 1.554 3 3 0 0 0 3 3h12a2.965 2.965 0 0 0 1.554-.446 2.965 2.965 0 0 0 .446-1.554 3 3 0 0 0 -3-3z" fill="#91989d"/><path d="m47 12a3 3 0 0 0 0 6h2v-6z" fill="#3e92c0"/><path d="m45.446 12.446a2.965 2.965 0 0 0 -.446 1.554 3 3 0 0 0 3 3h1v-5h-2a2.965 2.965 0 0 0 -1.554.446z" fill="#49aad0"/><path d="m23 57.946h-12a2.994 2.994 0 0 0 -2.817 2h17.633a2.994 2.994 0 0 0 -2.816-2z" fill="#7f5650"/><path d="m16 57.946h2v4.054h-2z" fill="#422d27"/><path d="m59 11h-12a3.991 3.991 0 0 0 -1.707 7.6l-8.826 5.181a3.794 3.794 0 0 0 -5 .338l-3.245 3.245-1.863-3.259a6.182 6.182 0 0 0 -5.359-3.105h-1v-.812a6.032 6.032 0 0 0 2.188-2.188h1.312a3.492 3.492 0 0 0 1.5-6.649v-3.351a4.007 4.007 0 0 0 -3.1-3.9 4.006 4.006 0 0 0 -3.9-3.1h-4a5.006 5.006 0 0 0 -5 5v5.351a3.492 3.492 0 0 0 1.5 6.649h1.312a6.024 6.024 0 0 0 2.188 2.188v.812h-1a6.912 6.912 0 0 0 -5.573 2.838l-4.471 6.147a10.16 10.16 0 0 0 -1.956 6.015v7.5a3.5 3.5 0 1 0 7 0v-.688l2-1.174v15.5a4 4 0 0 0 -3 3.862v1a1 1 0 0 0 1 1h18a1 1 0 0 0 1-1v-1a4 4 0 0 0 -3-3.858v-23.291l1.548 1.935a3.235 3.235 0 0 0 4.814.266l6.516-6.516a3.812 3.812 0 0 0 .831-4.162l10.859-6.374h10.432a4 4 0 0 0 0-8zm-12 2h1v4h-1a2 2 0 0 1 0-4zm-12.829 12c.066 0 .127.013.191.019l-2.342 1.375.858-.858a1.816 1.816 0 0 1 1.293-.536zm-10.671-9h-.59a6 6 0 0 0 .09-1v-2h.5a1.5 1.5 0 0 1 0 3zm-13 0a1.5 1.5 0 0 1 0-3h.5v2a6 6 0 0 0 .09 1zm1.5-6a1 1 0 0 0 -1 1v-5a3 3 0 0 1 3-3h4a2 2 0 0 1 2 2 1 1 0 0 0 1 1 2 2 0 0 1 2 2v3a1 1 0 0 0 -.293-.707l-3-3a1 1 0 0 0 -1.656.391 3.383 3.383 0 0 1 -3.213 2.316zm1 2h1.838a5.379 5.379 0 0 0 4.429-2.319l1.733 1.733v3.586a4 4 0 0 1 -8 0zm4 9a5.976 5.976 0 0 0 1-.09v.79l-1 1.5-1-1.5v-.79a6 6 0 0 0 1 .09zm-7.956 4.015a4.9 4.9 0 0 1 3.956-2.015h1.465l1.7 2.555a1 1 0 0 0 1.664 0l1.705-2.555h1.466a4.179 4.179 0 0 1 3.62 2.1l2.412 4.221-2.786 1.635-.465-.582a1 1 0 0 0 -1.781.626v1.275l-10 5.87v-7.145a1 1 0 0 0 -1.707-.707l-1.613 1.613-2.36-3.146zm8.956 31.985v-12h-2v12h-4v-16h10v16zm4-18h-7.506l7.506-4.406zm-16 4.5a1.5 1.5 0 0 1 -3 0v-7.5a8.175 8.175 0 0 1 1.573-4.838l.517-.71 2.161 2.882-.959.959a1 1 0 0 0 -.292.707zm2-3.007v-5.079l2-2v5.905zm3 18.507h5v2h-7a2 2 0 0 1 2-2zm14 2h-7v-2h5a2 2 0 0 1 2 2zm11-34.171a1.816 1.816 0 0 1 -.536 1.293l-6.516 6.516a1.269 1.269 0 0 1 -1.838-.1l-1.6-2 10.439-6.127a1.825 1.825 0 0 1 .051.418zm23-9.829h-9v-4h9a2 2 0 0 1 0 4z"/></svg>